<svg id="Layer_1" data-name="Layer 1" xmlns="http://www.w3.org/2000/svg" viewBox="0 0 190.33 49.22"><defs><style>.cls-1{fill:#fff;}</style></defs><title>logos</title><path class="cls-1" d="M313.67,290.43v12.46a2.18,2.18,0,0,1-.19.91,2.21,2.21,0,0,1-.5.73,2.42,2.42,0,0,1-.76.49,2.31,2.31,0,0,1-.91.18,2.11,2.11,0,0,1-.89-.18,2.2,2.2,0,0,1-.71-.49,2.13,2.13,0,0,1-.47-.73,2.53,2.53,0,0,1-.17-.91V290.43h-3a2.36,2.36,0,0,1-.92-.18,2.21,2.21,0,0,1-.73-.5,2.46,2.46,0,0,1-.5-.75,2.39,2.39,0,0,1-.18-.92,2.27,2.27,0,0,1,.18-.91,2.41,2.41,0,0,1,.5-.74,2.18,2.18,0,0,1,.73-.49,2.37,2.37,0,0,1,.92-.19h10.46a2.32,2.32,0,0,1,.91.19,2.76,2.76,0,0,1,.75.51,2.64,2.64,0,0,1,.5.76,2.31,2.31,0,0,1,.18.91,2.27,2.27,0,0,1-.18.91,2.49,2.49,0,0,1-.5.73,2.7,2.7,0,0,1-.75.49,2.31,2.31,0,0,1-.91.18Z" transform="translate(-303.74 -285.74)"/><path class="cls-1" d="M328.88,300.78h-6.09l-1.2,3a2,2,0,0,1-.53.79,2.21,2.21,0,0,1-.79.47,2.71,2.71,0,0,1-.91.15,2.52,2.52,0,0,1-.93-.21,2.2,2.2,0,0,1-.78-.53,2,2,0,0,1-.44-.75,2.5,2.5,0,0,1,.12-1.8l6.43-14.72a2.38,2.38,0,0,1,.87-1.05,2.32,2.32,0,0,1,2.53,0,2.18,2.18,0,0,1,.85,1.05l6.32,14.71a2.83,2.83,0,0,1,.23.92,2.32,2.32,0,0,1-.1.88,2.05,2.05,0,0,1-.43.76,1.91,1.91,0,0,1-.75.54,2.51,2.51,0,0,1-.92.21,2.66,2.66,0,0,1-.9-.15,2.49,2.49,0,0,1-.77-.48,2.35,2.35,0,0,1-.57-.78Zm-4.22-4.7H327l-1.17-2.82Z" transform="translate(-303.74 -285.74)"/><path class="cls-1" d="M341.54,293.17h5.91v-5.11a2.35,2.35,0,0,1,.19-.91,2.26,2.26,0,0,1,.52-.73,2.42,2.42,0,0,1,.76-.49,2.42,2.42,0,0,1,1.83,0,2.28,2.28,0,0,1,1.22,1.22,2.34,2.34,0,0,1,.18.91v14.83a2.35,2.35,0,0,1-.19.91,2.21,2.21,0,0,1-.5.73,2.34,2.34,0,0,1-1.65.67,2.36,2.36,0,0,1-.92-.18,2.27,2.27,0,0,1-.75-.49,2.23,2.23,0,0,1-.51-.73,2.34,2.34,0,0,1-.18-.91v-5.05h-5.91v5.05a2.34,2.34,0,0,1-.18.91,2.21,2.21,0,0,1-.5.73,2.27,2.27,0,0,1-.75.49,2.39,2.39,0,0,1-.92.18,2.31,2.31,0,0,1-.91-.18,2.49,2.49,0,0,1-.75-.49,2.25,2.25,0,0,1-.68-1.64V288.06a2.25,2.25,0,0,1,.68-1.64,2.49,2.49,0,0,1,.75-.49,2.31,2.31,0,0,1,.91-.18,2.39,2.39,0,0,1,.92.18,2.27,2.27,0,0,1,.75.49,2.21,2.21,0,0,1,.5.73,2.34,2.34,0,0,1,.18.91Z" transform="translate(-303.74 -285.74)"/><path class="cls-1" d="M366.35,287.16a2.16,2.16,0,0,1,.5-.73,2.41,2.41,0,0,1,1.65-.68,2.37,2.37,0,0,1,.92.19,2.27,2.27,0,0,1,.75.49,2.16,2.16,0,0,1,.5.73,2.11,2.11,0,0,1,.19.9v9.8a8,8,0,0,1-.53,2.91,7.23,7.23,0,0,1-1.52,2.38,6.85,6.85,0,0,1-2.37,1.62,7.72,7.72,0,0,1-3.1.59,8,8,0,0,1-3.15-.59,7.41,7.41,0,0,1-2.48-1.62,7.5,7.5,0,0,1-1.62-2.38,7.31,7.31,0,0,1-.59-2.91v-9.77a2.39,2.39,0,0,1,.18-.92,2.56,2.56,0,0,1,.51-.75,2.29,2.29,0,0,1,.75-.5,2.34,2.34,0,0,1,2.57.5,2.52,2.52,0,0,1,.5.75,2.39,2.39,0,0,1,.18.92v9.74a3,3,0,0,0,.25,1.1,2.79,2.79,0,0,0,.63.92,3.07,3.07,0,0,0,2.22.88,2.94,2.94,0,0,0,1.27-.25,2.55,2.55,0,0,0,.9-.68,2.82,2.82,0,0,0,.53-1,3.56,3.56,0,0,0,.17-1.13v-9.65A2.11,2.11,0,0,1,366.35,287.16Z" transform="translate(-303.74 -285.74)"/><path class="cls-1" d="M387.73,291.81a5.85,5.85,0,0,1-.21,1.58,6.27,6.27,0,0,1-.59,1.41A6,6,0,0,1,386,296a5.63,5.63,0,0,1-1.18.93l2.54,4.8a2.26,2.26,0,0,1,.28.88,2,2,0,0,1-.08.88,2.38,2.38,0,0,1-.41.79,2.34,2.34,0,0,1-.69.6,2.41,2.41,0,0,1-1.78.23,2.16,2.16,0,0,1-.79-.39,2.23,2.23,0,0,1-.6-.69L380,297.81h-1v5.08a2.34,2.34,0,0,1-.18.91,2.21,2.21,0,0,1-.5.73,2.27,2.27,0,0,1-.75.49,2.39,2.39,0,0,1-.92.18,2.27,2.27,0,0,1-.91-.18,2.38,2.38,0,0,1-.75-.49,2.21,2.21,0,0,1-.5-.73,2.34,2.34,0,0,1-.18-.91V288.06a2.26,2.26,0,0,1,.18-.9,2.31,2.31,0,0,1,.5-.73,2.38,2.38,0,0,1,.75-.49,2.28,2.28,0,0,1,.91-.19h5a5.82,5.82,0,0,1,2.35.49,6,6,0,0,1,1.93,1.31,6.37,6.37,0,0,1,1.3,1.93A5.79,5.79,0,0,1,387.73,291.81ZM379,290.39v2.75h2.71a1,1,0,0,0,.47-.13,1.71,1.71,0,0,0,.44-.32,2.17,2.17,0,0,0,.32-.47,1.32,1.32,0,0,0,.12-.54,1.11,1.11,0,0,0-.12-.5,1.53,1.53,0,0,0-.76-.69,1.09,1.09,0,0,0-.46-.1Z" transform="translate(-303.74 -285.74)"/><path class="cls-1" d="M401.2,300.78h-6.09l-1.2,3a2,2,0,0,1-.53.79,2.09,2.09,0,0,1-.78.47,2.76,2.76,0,0,1-.91.15,2.61,2.61,0,0,1-.94-.21,2.16,2.16,0,0,1-.77-.53,2,2,0,0,1-.44-.75,2.37,2.37,0,0,1,.12-1.8l6.42-14.72a2.44,2.44,0,0,1,.87-1.05,2.25,2.25,0,0,1,1.29-.38,2.24,2.24,0,0,1,2.1,1.42l6.31,14.71a2.6,2.6,0,0,1,.23.92,2.32,2.32,0,0,1-.1.88,1.9,1.9,0,0,1-.42.76,2.07,2.07,0,0,1-.75.54,2.61,2.61,0,0,1-.93.21,2.74,2.74,0,0,1-.9-.15,2.41,2.41,0,0,1-1.33-1.26Zm-4.22-4.7h2.29l-1.17-2.82Z" transform="translate(-303.74 -285.74)"/><path class="cls-1" d="M318.79,316.12a5.83,5.83,0,0,1-.21,1.57,6,6,0,0,1-1.5,2.61,6,6,0,0,1-1.19.93l2.54,4.8a2.28,2.28,0,0,1,.29.88,2.15,2.15,0,0,1-.09.88,2.21,2.21,0,0,1-.41.79,2,2,0,0,1-.69.6,2.41,2.41,0,0,1-1.78.23A2.18,2.18,0,0,1,315,329a2.29,2.29,0,0,1-.61-.7L311,322.12h-1v5.07a2.31,2.31,0,0,1-.18.91,2.21,2.21,0,0,1-.5.73,2.12,2.12,0,0,1-.75.49,2.39,2.39,0,0,1-.92.18,2.39,2.39,0,0,1-1.66-.67,2.37,2.37,0,0,1-.5-.73,2.31,2.31,0,0,1-.18-.91V312.36a2.26,2.26,0,0,1,.18-.9,2.29,2.29,0,0,1,1.25-1.22,2.31,2.31,0,0,1,.91-.18h5a5.89,5.89,0,0,1,2.36.48,6.17,6.17,0,0,1,3.22,3.24A5.83,5.83,0,0,1,318.79,316.12ZM310,314.69v2.75h2.71a1.06,1.06,0,0,0,.47-.12,1.75,1.75,0,0,0,.44-.33,1.7,1.7,0,0,0,.32-.47,1.32,1.32,0,0,0,.12-.54,1,1,0,0,0-.12-.49,1.3,1.3,0,0,0-.32-.41,2,2,0,0,0-.43-.29,1.14,1.14,0,0,0-.47-.1Z" transform="translate(-303.74 -285.74)"/><path class="cls-1" d="M332.26,325.08h-6.09l-1.2,3a2,2,0,0,1-.53.79,2.09,2.09,0,0,1-.78.47,2.52,2.52,0,0,1-.91.15,2.42,2.42,0,0,1-.94-.21,2.16,2.16,0,0,1-.77-.53,2,2,0,0,1-.44-.75,2.5,2.5,0,0,1,.12-1.8l6.43-14.72a2.42,2.42,0,0,1,.86-1.05,2.39,2.39,0,0,1,2.54,0,2.24,2.24,0,0,1,.85,1.05l6.32,14.72a2.69,2.69,0,0,1,.22.91,2.62,2.62,0,0,1-.09.89,2.09,2.09,0,0,1-.43.75,2.07,2.07,0,0,1-.75.54,2.37,2.37,0,0,1-.93.21,2.64,2.64,0,0,1-.89-.15,2.42,2.42,0,0,1-.78-.48,2.36,2.36,0,0,1-.56-.78Zm-4.22-4.7h2.29l-1.16-2.82Z" transform="translate(-303.74 -285.74)"/><path class="cls-1" d="M346,310.06a10,10,0,0,1,2.62.34,10.27,10.27,0,0,1,2.37,1,9.87,9.87,0,0,1,2,1.52,9.69,9.69,0,0,1,1.55,2,9.74,9.74,0,0,1,1.36,5,9.23,9.23,0,0,1-.36,2.6,9.38,9.38,0,0,1-1,2.32,9.07,9.07,0,0,1-1.54,1.95,9.73,9.73,0,0,1-2,1.49,10.52,10.52,0,0,1-2.34,1,9.84,9.84,0,0,1-2.61.35h-3.52a2.27,2.27,0,0,1-.91-.18,2.12,2.12,0,0,1-.75-.49,2.21,2.21,0,0,1-.5-.73,2.31,2.31,0,0,1-.18-.91V312.36a2.26,2.26,0,0,1,.18-.9,2.31,2.31,0,0,1,.5-.73,2.39,2.39,0,0,1,1.66-.67H346Zm5.16,9.75a4.9,4.9,0,0,0-1.49-3.57,5.09,5.09,0,0,0-1.64-1.06,5.19,5.19,0,0,0-2-.39h-1.12v10h1.12a5.37,5.37,0,0,0,2-.37,4.84,4.84,0,0,0,1.64-1,4.9,4.9,0,0,0,1.49-3.59Z" transform="translate(-303.74 -285.74)"/><path class="cls-1" d="M360.73,329.5a2.6,2.6,0,0,1-.85-.23,2,2,0,0,1-.69-.49,2.33,2.33,0,0,1-.45-.7,2.13,2.13,0,0,1-.17-.88V312.39a2.25,2.25,0,0,1,.18-.89,2.56,2.56,0,0,1,.49-.75,2.36,2.36,0,0,1,.74-.5,2.18,2.18,0,0,1,.93-.19h7.26a2.3,2.3,0,0,1,1.65.68,2.48,2.48,0,0,1,.48.74,2.42,2.42,0,0,1,0,1.83,2.58,2.58,0,0,1-.48.76,2.3,2.3,0,0,1-1.65.68h-4.91v2.79h3.34a2.27,2.27,0,0,1,.91.16,2.15,2.15,0,0,1,.75.5,2.57,2.57,0,0,1,.51.74,2.32,2.32,0,0,1,.19.91,2.28,2.28,0,0,1-.19.91,2.43,2.43,0,0,1-.51.71,2.2,2.2,0,0,1-.75.46,2.46,2.46,0,0,1-.91.17h-3.34v2.72h4.91a2.18,2.18,0,0,1,.91.19,2.23,2.23,0,0,1,.74.51,2.41,2.41,0,0,1,.48.75,2.36,2.36,0,0,1,.18.92,2.31,2.31,0,0,1-.18.91,2.48,2.48,0,0,1-.48.74,2.2,2.2,0,0,1-.74.5,2.33,2.33,0,0,1-.91.16Z" transform="translate(-303.74 -285.74)"/><path class="cls-1" d="M377.74,319.26v7.93a2.32,2.32,0,0,1-.19.91,2.21,2.21,0,0,1-.5.73,2.12,2.12,0,0,1-.75.49,2.36,2.36,0,0,1-.92.18,2.31,2.31,0,0,1-.91-.18,2.17,2.17,0,0,1-.74-.49,2.23,2.23,0,0,1-.51-.73,2.31,2.31,0,0,1-.18-.91V312.44a2.31,2.31,0,0,1,.18-.91,2.39,2.39,0,0,1,.51-.74,2.15,2.15,0,0,1,.74-.48,2.31,2.31,0,0,1,.91-.18h0a2.27,2.27,0,0,1,.43.05,2.25,2.25,0,0,1,.89.37,2.31,2.31,0,0,1,.67.69l6.74,9.16v-8a2.35,2.35,0,0,1,.19-.91,2.26,2.26,0,0,1,.52-.73,2.42,2.42,0,0,1,.76-.49,2.39,2.39,0,0,1,.92-.17,2.25,2.25,0,0,1,.9.17,2.29,2.29,0,0,1,.73.49,2.25,2.25,0,0,1,.68,1.64v14.83a2.19,2.19,0,0,1-.46,1.38,2.33,2.33,0,0,1-1.17.82l-.29.08-.33,0h-.14a2.11,2.11,0,0,1-.9-.19,2.33,2.33,0,0,1-1.41-2.12V320.4l3.95,5.36a2.24,2.24,0,0,1,.37,1,3,3,0,0,1,0,1.08,2.63,2.63,0,0,1-.42.95,1.59,1.59,0,0,1-.79.61l-.3.08a1.66,1.66,0,0,1-.32,0h-.14a3,3,0,0,1-.48-.08,3.05,3.05,0,0,1-.51-.17A2.87,2.87,0,0,1,385,329a1.27,1.27,0,0,1-.36-.37Z" transform="translate(-303.74 -285.74)"/><path class="cls-1" d="M405.39,322.56a19.34,19.34,0,0,1-3.19-.84,7.94,7.94,0,0,1-2.31-1.28,5,5,0,0,1-1.39-1.8,5.57,5.57,0,0,1-.47-2.37,5.85,5.85,0,0,1,.54-2.5,6,6,0,0,1,1.48-2,7.06,7.06,0,0,1,2.23-1.34,7.56,7.56,0,0,1,2.76-.49,9.46,9.46,0,0,1,1.83.18,8.51,8.51,0,0,1,1.73.55,6.8,6.8,0,0,1,1.49.9,4.79,4.79,0,0,1,1.09,1.25,1.58,1.58,0,0,1,.23.67,1.93,1.93,0,0,1,0,.68,1.88,1.88,0,0,1-.23.61,2.23,2.23,0,0,1-.38.47,1.74,1.74,0,0,1-.57.41,2.52,2.52,0,0,1-.74.2,2.48,2.48,0,0,1-.81,0,2.36,2.36,0,0,1-.8-.35,4.73,4.73,0,0,1-.64-.32,5.12,5.12,0,0,0-.52-.27,4,4,0,0,0-.63-.18,5,5,0,0,0-1-.07,3.87,3.87,0,0,0-1.1.14,2.17,2.17,0,0,0-.73.36,1.25,1.25,0,0,0-.41.52,1.37,1.37,0,0,0-.13.59,1.06,1.06,0,0,0,.23.71,1.62,1.62,0,0,0,.72.45,8.49,8.49,0,0,0,1.29.33l1.93.37a10.31,10.31,0,0,1,1.93.55,5.8,5.8,0,0,1,1.7,1,4.75,4.75,0,0,1,1.22,1.59,5.11,5.11,0,0,1,.46,2.27,5.49,5.49,0,0,1-.53,2.35,6.08,6.08,0,0,1-1.49,2,7,7,0,0,1-2.29,1.36,8.19,8.19,0,0,1-2.95.5,8.32,8.32,0,0,1-2.31-.31,8.67,8.67,0,0,1-2-.83,7,7,0,0,1-1.59-1.23,5.72,5.72,0,0,1-1.06-1.48,3,3,0,0,1-.32-1.06,2.19,2.19,0,0,1,.11-.9,2,2,0,0,1,.43-.72,2.8,2.8,0,0,1,.66-.53,2,2,0,0,1,1.66-.21,3.79,3.79,0,0,1,1.57,1.27,5.73,5.73,0,0,0,.64.59,3.16,3.16,0,0,0,.68.41,3,3,0,0,0,.77.23,4.48,4.48,0,0,0,.93.08,4.33,4.33,0,0,0,.89-.09,3.16,3.16,0,0,0,.77-.26,1.88,1.88,0,0,0,.54-.39.67.67,0,0,0,.2-.49.71.71,0,0,0-.19-.52,1.64,1.64,0,0,0-.51-.35,3.48,3.48,0,0,0-.69-.21Z" transform="translate(-303.74 -285.74)"/><path class="cls-1" d="M423.22,309.92a9.53,9.53,0,0,1,2.62.36,9.91,9.91,0,0,1,4.38,2.53,10.46,10.46,0,0,1,1.55,2,10.09,10.09,0,0,1,1,2.36,9.75,9.75,0,0,1-.43,6.47,10.29,10.29,0,0,1-2.12,3.14,10,10,0,0,1-3.16,2.11,9.87,9.87,0,0,1-7.69,0,9.82,9.82,0,0,1-3.13-2.11,10.21,10.21,0,0,1-2.09-3.14,9.72,9.72,0,0,1-.77-3.84,9.88,9.88,0,0,1,.35-2.63,10.06,10.06,0,0,1,2.52-4.37,9.77,9.77,0,0,1,4.34-2.53A9.6,9.6,0,0,1,423.22,309.92Zm0,4.74a5.06,5.06,0,0,0-2,.4,5.19,5.19,0,0,0-1.64,1.1,5.14,5.14,0,0,0-1.1,1.64,5.22,5.22,0,0,0-.39,2,5.29,5.29,0,0,0,.39,2,5,5,0,0,0,1.1,1.64,5.17,5.17,0,0,0,1.64,1.09,5.19,5.19,0,0,0,5.67-1.09,5,5,0,0,0,1.09-1.64,5.13,5.13,0,0,0,.41-2,5.05,5.05,0,0,0-.41-2,5.11,5.11,0,0,0-1.09-1.64,5.26,5.26,0,0,0-1.63-1.1A5.06,5.06,0,0,0,423.24,314.66Z" transform="translate(-303.74 -285.74)"/><path class="cls-1" d="M437.91,329.5a2.6,2.6,0,0,1-.85-.23,2.12,2.12,0,0,1-.69-.49,2.33,2.33,0,0,1-.45-.7,2.3,2.3,0,0,1-.17-.88V312.39a2.25,2.25,0,0,1,.18-.89,2.59,2.59,0,0,1,.5-.75,2.21,2.21,0,0,1,.73-.5,2.24,2.24,0,0,1,.93-.19h7.26a2.31,2.31,0,0,1,.91.18,2.36,2.36,0,0,1,.74.5,2.15,2.15,0,0,1,.48.74,2.42,2.42,0,0,1,0,1.83,2.23,2.23,0,0,1-.48.76,2.36,2.36,0,0,1-.74.5,2.31,2.31,0,0,1-.91.18h-4.9v2.79h3.34a2.33,2.33,0,0,1,.91.16,2.2,2.2,0,0,1,.74.5,2.57,2.57,0,0,1,.51.74,2.15,2.15,0,0,1,.19.91,2.12,2.12,0,0,1-.19.91,2.43,2.43,0,0,1-.51.71,2.25,2.25,0,0,1-.74.46,2.53,2.53,0,0,1-.91.17h-3.34v2.72h4.9a2.15,2.15,0,0,1,.91.19,2.23,2.23,0,0,1,.74.51,2.1,2.1,0,0,1,.48.75,2.36,2.36,0,0,1,.18.92,2.31,2.31,0,0,1-.18.91,2.15,2.15,0,0,1-.48.74,2.2,2.2,0,0,1-.74.5,2.3,2.3,0,0,1-.91.16Z" transform="translate(-303.74 -285.74)"/><path class="cls-1" d="M463.67,316.12a5.83,5.83,0,0,1-.21,1.57,6.3,6.3,0,0,1-.6,1.41,5.59,5.59,0,0,1-.91,1.2,5.9,5.9,0,0,1-1.18.93l2.53,4.8a2.28,2.28,0,0,1,.29.88,2.34,2.34,0,0,1-.08.88,2.38,2.38,0,0,1-.41.79,2.2,2.2,0,0,1-.69.6,2.27,2.27,0,0,1-.89.29,2.34,2.34,0,0,1-1.68-.44,2.43,2.43,0,0,1-.61-.7l-3.32-6.21h-1v5.07a2.31,2.31,0,0,1-.18.91,2.21,2.21,0,0,1-.5.73,2.26,2.26,0,0,1-.76.49,2.31,2.31,0,0,1-.91.18,2.36,2.36,0,0,1-.92-.18,2.17,2.17,0,0,1-.74-.49,2.21,2.21,0,0,1-.5-.73,2.31,2.31,0,0,1-.18-.91V312.36a2.26,2.26,0,0,1,.18-.9,2.31,2.31,0,0,1,1.24-1.22,2.36,2.36,0,0,1,.92-.18h5a5.85,5.85,0,0,1,2.35.48,6.23,6.23,0,0,1,3.23,3.24A5.83,5.83,0,0,1,463.67,316.12Zm-8.75-1.43v2.75h2.7a1.06,1.06,0,0,0,.47-.12,1.59,1.59,0,0,0,.44-.33,1.51,1.51,0,0,0,.32-.47A1.32,1.32,0,0,0,459,316a1,1,0,0,0-.12-.49,1.17,1.17,0,0,0-.32-.41,1.8,1.8,0,0,0-.43-.29,1.13,1.13,0,0,0-.46-.1Z" transform="translate(-303.74 -285.74)"/><path class="cls-1" d="M464.76,335a2.62,2.62,0,0,1-1.37-.33,2.27,2.27,0,0,1-.82-.84,2.47,2.47,0,0,1-.28-1.11,2.56,2.56,0,0,1,.25-1.13,2.36,2.36,0,0,1,.79-.88,2.61,2.61,0,0,1,1.32-.4,2.55,2.55,0,0,0,.89-.23,2.76,2.76,0,0,0,.75-.51,2.23,2.23,0,0,0,.51-.73,2.18,2.18,0,0,0,.19-.91V312.47a2.41,2.41,0,0,1,.18-.93,2.3,2.3,0,0,1,.49-.77,2.2,2.2,0,0,1,.75-.52,2.17,2.17,0,0,1,.92-.19,2.27,2.27,0,0,1,.95.19,2.2,2.2,0,0,1,.75.52,2.33,2.33,0,0,1,.5.77,2.6,2.6,0,0,1,.17.93v15.61a6.6,6.6,0,0,1-.55,2.66,7.36,7.36,0,0,1-1.48,2.19,7,7,0,0,1-2.2,1.49A6.85,6.85,0,0,1,464.76,335Z" transform="translate(-303.74 -285.74)"/><path class="cls-1" d="M484.17,309.92a9.58,9.58,0,0,1,2.62.36,10.32,10.32,0,0,1,2.37,1,10,10,0,0,1,2,1.54,10,10,0,0,1,2.55,4.37,9.82,9.82,0,0,1-.42,6.47,10.14,10.14,0,0,1-2.13,3.14A9.79,9.79,0,0,1,488,328.9a9.87,9.87,0,0,1-7.69,0,9.82,9.82,0,0,1-3.13-2.11,10.23,10.23,0,0,1-2.1-3.14,9.71,9.71,0,0,1-.76-3.84,9.49,9.49,0,0,1,.35-2.63,9.8,9.8,0,0,1,2.52-4.37,9.77,9.77,0,0,1,4.34-2.53A9.54,9.54,0,0,1,484.17,309.92Zm0,4.74a5,5,0,0,0-2,.4,5.36,5.36,0,0,0-1.65,1.1,5.11,5.11,0,0,0-1.09,1.64,5.22,5.22,0,0,0-.39,2,5.29,5.29,0,0,0,.39,2,5,5,0,0,0,1.09,1.64,5.33,5.33,0,0,0,1.65,1.09,5.18,5.18,0,0,0,2,.39,5.07,5.07,0,0,0,3.66-1.48,5.18,5.18,0,0,0,1.49-3.68,5,5,0,0,0-.4-2,5.07,5.07,0,0,0-2.72-2.74A5.11,5.11,0,0,0,484.18,314.66Z" transform="translate(-303.74 -285.74)"/></svg>